<svg width="24" height="24" viewBox="0 0 24 24" fill="none" xmlns="http://www.w3.org/2000/svg">
<path d="M21.0586 7.17919C21.0678 7.39039 21.0679 7.59199 21.0679 7.80319C21.0771 14.2064 16.3726 21.5984 7.76939 21.5984C5.23194 21.5984 2.7408 20.84 0.601562 19.4192C0.971993 19.4672 1.34242 19.4864 1.71285 19.4864C3.81505 19.4864 5.86168 18.7568 7.51935 17.4032C5.51903 17.3648 3.75948 16.0112 3.14827 14.0336C3.85209 14.1776 4.57443 14.1488 5.25973 13.9472C3.08345 13.5056 1.51838 11.5184 1.50912 9.2048C1.50912 9.1856 1.50912 9.1664 1.50912 9.1472C2.15737 9.5216 2.88897 9.7328 3.62983 9.752C1.5832 8.3312 0.944211 5.49919 2.18515 3.28158C4.56517 6.31519 8.06574 8.14879 11.8256 8.3504C11.4459 6.67039 11.9645 4.90398 13.1777 3.71358C15.0576 1.87997 18.0211 1.97597 19.7991 3.92478C20.8456 3.71358 21.855 3.31038 22.7718 2.74398C22.4199 3.86718 21.6883 4.81758 20.7159 5.42239C21.642 5.30719 22.5496 5.04798 23.4016 4.66398C22.7718 5.64319 21.9754 6.48799 21.0586 7.17919Z" fill="white"/>
</svg>
