<!--<svg width="28" height="26" viewBox="0 0 28 26" fill="none" xmlns="http://www.w3.org/2000/svg">-->
<!--    <path d="M13.3095 25.3734L13.3003 25.3685L13.2682 25.3511C13.2409 25.3362 13.2018 25.3148 13.1517 25.2869C13.0516 25.231 12.9076 25.1493 12.7259 25.0423C12.3625 24.8286 11.8478 24.5139 11.2321 24.1046C10.0027 23.2873 8.36006 22.086 6.71301 20.5506C3.45357 17.5122 0 12.9981 0 7.4375C0 3.28942 3.4901 0 7.70312 0C10.1807 0 12.3991 1.13204 13.8125 2.90643C15.2259 1.13204 17.4443 0 19.9219 0C24.1349 0 27.625 3.28942 27.625 7.4375C27.625 12.9981 24.1714 17.5122 20.912 20.5506C19.2649 22.086 17.6223 23.2873 16.3929 24.1046C15.7772 24.5139 15.2625 24.8286 14.8991 25.0423C14.7174 25.1493 14.5734 25.231 14.4733 25.2869C14.4232 25.3148 14.3841 25.3362 14.3568 25.3511L14.3247 25.3685L14.3155 25.3734L14.3116 25.3755C13.9999 25.541 13.6251 25.541 13.3134 25.3755L13.3095 25.3734Z" fill="#FF5500"/>-->
<!--</svg>-->


<svg width="26" height="26" viewBox="0 0 26 26" fill="none" xmlns="http://www.w3.org/2000/svg">
    <path d="M12.6154 22.6532L12.6083 22.6494L12.5838 22.6361C12.5629 22.6248 12.533 22.6084 12.4947 22.587C12.4182 22.5443 12.308 22.4818 12.169 22.4C11.8912 22.2366 11.4976 21.9959 11.0268 21.6829C10.0866 21.0579 8.83048 20.1393 7.57098 18.9652C5.07846 16.6417 2.4375 13.1897 2.4375 8.9375C2.4375 5.76544 5.1064 3.25 8.32812 3.25C10.2227 3.25 11.9192 4.11568 13 5.47256C14.0808 4.11568 15.7773 3.25 17.6719 3.25C20.8936 3.25 23.5625 5.76544 23.5625 8.9375C23.5625 13.1897 20.9215 16.6417 18.429 18.9652C17.1695 20.1393 15.9134 21.0579 14.9732 21.6829C14.5024 21.9959 14.1088 22.2366 13.831 22.4C13.692 22.4818 13.5818 22.5443 13.5053 22.587C13.467 22.6084 13.4371 22.6248 13.4162 22.6361L13.3917 22.6494L13.3846 22.6532L13.3816 22.6548C13.1433 22.7813 12.8567 22.7813 12.6184 22.6548L12.6154 22.6532Z" fill="#FF5500"/>
</svg>
