<!--<svg width="26" height="26" viewBox="0 0 26 26" fill="none" xmlns="http://www.w3.org/2000/svg">-->
<!--    <path d="M9.89134 15.2324L1.58047 11.4547C0.436697 10.9348 0.485495 9.29382 1.65814 8.84281L22.4451 0.847802C23.5909 0.407141 24.7166 1.53288 24.2759 2.6786L16.2809 23.4656C15.8299 24.6383 14.1889 24.687 13.669 23.5433L9.89134 15.2324ZM9.89134 15.2324L16.1031 9.02089" stroke="#666666" stroke-width="1.5" stroke-linecap="round" stroke-linejoin="round"/>-->
<!--</svg>-->



<svg width="26" height="26" viewBox="0 0 26 26" fill="none" xmlns="http://www.w3.org/2000/svg">
    <path d="M10.8733 15.1256L4.51787 12.2368C3.64323 11.8392 3.68054 10.5843 4.57727 10.2394L20.4732 4.12557C21.3494 3.7886 22.2102 4.64945 21.8732 5.52559L15.7594 21.4215C15.4145 22.3183 14.1596 22.3556 13.7621 21.4809L10.8733 15.1256ZM10.8733 15.1256L15.6234 10.3756" stroke="#666666" stroke-width="1.5" stroke-linecap="round" stroke-linejoin="round"/>
</svg>
