<svg width="28" height="26" viewBox="0 0 28 26" fill="none" xmlns="http://www.w3.org/2000/svg">
    <path d="M13.3095 25.3734L13.3003 25.3685L13.2682 25.3511C13.2409 25.3362 13.2018 25.3148 13.1517 25.2869C13.0516 25.231 12.9076 25.1493 12.7259 25.0423C12.3625 24.8286 11.8478 24.5139 11.2321 24.1046C10.0027 23.2873 8.36006 22.086 6.71301 20.5506C3.45357 17.5122 0 12.9981 0 7.4375C0 3.28942 3.4901 0 7.70312 0C10.1807 0 12.3991 1.13204 13.8125 2.90643C15.2259 1.13204 17.4443 0 19.9219 0C24.1349 0 27.625 3.28942 27.625 7.4375C27.625 12.9981 24.1714 17.5122 20.912 20.5506C19.2649 22.086 17.6223 23.2873 16.3929 24.1046C15.7772 24.5139 15.2625 24.8286 14.8991 25.0423C14.7174 25.1493 14.5734 25.231 14.4733 25.2869C14.4232 25.3148 14.3841 25.3362 14.3568 25.3511L14.3247 25.3685L14.3155 25.3734L14.3116 25.3755C13.9999 25.541 13.6251 25.541 13.3134 25.3755L13.3095 25.3734Z" fill="#FF5500"/>
</svg>
