<svg width="24" height="14" viewBox="0 0 24 14" fill="none" xmlns="http://www.w3.org/2000/svg">
    <path d="M13.5374 6.8277C13.5374 10.5984 10.5069 13.6552 6.76883 13.6552C3.03073 13.6552 0 10.5977 0 6.8277C0 3.05767 3.0305 0 6.76883 0C10.5072 0 13.5374 3.05698 13.5374 6.8277Z" fill="white"/>
    <path d="M20.9642 6.82619C20.9642 10.3755 19.4489 13.2539 17.5797 13.2539C15.7106 13.2539 14.1953 10.3755 14.1953 6.82619C14.1953 3.27687 15.7103 0.398438 17.5795 0.398438C19.4487 0.398438 20.9639 3.27595 20.9639 6.82619" fill="white"/>
    <path d="M24.0015 6.82856C24.0015 10.0079 23.4686 12.5868 22.8112 12.5868C22.1537 12.5868 21.6211 10.0086 21.6211 6.82856C21.6211 3.64855 22.1539 1.07031 22.8112 1.07031C23.4684 1.07031 24.0015 3.64832 24.0015 6.82856Z" fill="white"/>
</svg>
