<svg width="113" height="18" viewBox="0 0 113 18" fill="none" xmlns="http://www.w3.org/2000/svg">
<path d="M101.898 0H104.969V4.71094L104.781 6.79688H104.969C105.297 6.25 105.766 5.80469 106.375 5.46094C107 5.10156 107.695 4.92187 108.461 4.92187C109.945 4.92187 111.039 5.35937 111.742 6.23437C112.461 7.10937 112.82 8.30469 112.82 9.82031V16.7812H109.75V10.1953C109.75 9.39844 109.563 8.79688 109.188 8.39063C108.813 7.96875 108.289 7.75781 107.617 7.75781C107.195 7.75781 106.82 7.85156 106.492 8.03906C106.164 8.21094 105.883 8.45312 105.648 8.76562C105.43 9.07812 105.258 9.44531 105.133 9.86719C105.023 10.2734 104.969 10.7109 104.969 11.1797V16.7812H101.898V0Z" fill="white"/>
<path d="M100.734 13.8516C100.234 14.8203 99.5313 15.6172 98.625 16.2422C97.7344 16.8516 96.6172 17.1563 95.2734 17.1563C94.3828 17.1563 93.5625 17.0078 92.8125 16.7109C92.0781 16.3984 91.4375 15.9688 90.8906 15.4219C90.3594 14.875 89.9375 14.2344 89.625 13.5C89.3281 12.75 89.1797 11.9297 89.1797 11.0391C89.1797 10.1484 89.3281 9.32813 89.625 8.57813C89.9375 7.82813 90.3594 7.1875 90.8906 6.65625C91.4375 6.10938 92.0781 5.6875 92.8125 5.39063C93.5625 5.07813 94.3828 4.92188 95.2734 4.92188C96.6016 4.92188 97.7188 5.22656 98.625 5.83594C99.5313 6.44531 100.195 7.23437 100.617 8.20312L97.8047 9.375C97.5391 8.84375 97.1953 8.44531 96.7734 8.17969C96.3672 7.89844 95.8516 7.75781 95.2266 7.75781C94.8203 7.75781 94.4375 7.83594 94.0781 7.99219C93.7188 8.14844 93.3984 8.36719 93.1172 8.64844C92.8516 8.92969 92.6406 9.27344 92.4844 9.67969C92.3281 10.0859 92.25 10.5391 92.25 11.0391C92.25 11.5391 92.3281 11.9922 92.4844 12.3984C92.6406 12.8047 92.8516 13.1484 93.1172 13.4297C93.3984 13.7109 93.7188 13.9297 94.0781 14.0859C94.4375 14.2422 94.8203 14.3203 95.2266 14.3203C95.8672 14.3203 96.4063 14.1797 96.8438 13.8984C97.2969 13.6016 97.6563 13.1797 97.9219 12.6328L100.734 13.8516Z" fill="white"/>
<path d="M88.2734 14.0156C87.7422 14.9531 87.0234 15.7109 86.1172 16.2891C85.2266 16.8672 84.1328 17.1563 82.8359 17.1563C81.9609 17.1563 81.1484 17.0078 80.3984 16.7109C79.6641 16.3984 79.0234 15.9688 78.4766 15.4219C77.9297 14.875 77.5 14.2344 77.1875 13.5C76.8906 12.75 76.7422 11.9297 76.7422 11.0391C76.7422 10.2109 76.8906 9.42969 77.1875 8.69531C77.4844 7.94531 77.8984 7.29688 78.4297 6.75C78.9609 6.1875 79.5859 5.74219 80.3047 5.41406C81.0391 5.08594 81.8438 4.92188 82.7188 4.92188C83.6406 4.92188 84.4609 5.07813 85.1797 5.39063C85.8984 5.6875 86.5 6.10938 86.9844 6.65625C87.4688 7.1875 87.8359 7.82031 88.0859 8.55469C88.3359 9.28906 88.4609 10.0859 88.4609 10.9453C88.4609 11.0547 88.4609 11.1484 88.4609 11.2266C88.4453 11.3203 88.4375 11.4063 88.4375 11.4844C88.4219 11.5625 88.4141 11.6484 88.4141 11.7422H79.7656C79.8281 12.2109 79.9531 12.6172 80.1406 12.9609C80.3438 13.2891 80.5859 13.5703 80.8672 13.8047C81.1641 14.0234 81.4844 14.1875 81.8281 14.2969C82.1719 14.3906 82.5234 14.4375 82.8828 14.4375C83.5859 14.4375 84.1641 14.2813 84.6172 13.9688C85.0859 13.6406 85.4531 13.2344 85.7188 12.75L88.2734 14.0156ZM85.4844 9.5625C85.4688 9.35938 85.3984 9.13281 85.2734 8.88281C85.1641 8.63281 84.9922 8.39844 84.7578 8.17969C84.5391 7.96094 84.2578 7.78125 83.9141 7.64063C83.5859 7.5 83.1875 7.42969 82.7188 7.42969C82.0625 7.42969 81.4844 7.61719 80.9844 7.99219C80.4844 8.36719 80.1328 8.89062 79.9297 9.5625H85.4844Z" fill="white"/>
<path d="M70.25 16.7812V3H65.5625V0H78.1016V3H73.4141V16.7812H70.25Z" fill="white"/>
<path d="M64.8672 14.0156C64.3359 14.9531 63.6172 15.7109 62.7109 16.2891C61.8203 16.8672 60.7266 17.1563 59.4297 17.1563C58.5547 17.1563 57.7422 17.0078 56.9922 16.7109C56.2578 16.3984 55.6172 15.9688 55.0703 15.4219C54.5234 14.875 54.0938 14.2344 53.7813 13.5C53.4844 12.75 53.3359 11.9297 53.3359 11.0391C53.3359 10.2109 53.4844 9.42969 53.7813 8.69531C54.0781 7.94531 54.4922 7.29688 55.0234 6.75C55.5547 6.1875 56.1797 5.74219 56.8984 5.41406C57.6328 5.08594 58.4375 4.92188 59.3125 4.92188C60.2344 4.92188 61.0547 5.07813 61.7734 5.39063C62.4922 5.6875 63.0938 6.10938 63.5781 6.65625C64.0625 7.1875 64.4297 7.82031 64.6797 8.55469C64.9297 9.28906 65.0547 10.0859 65.0547 10.9453C65.0547 11.0547 65.0547 11.1484 65.0547 11.2266C65.0391 11.3203 65.0313 11.4063 65.0313 11.4844C65.0156 11.5625 65.0078 11.6484 65.0078 11.7422H56.3594C56.4219 12.2109 56.5469 12.6172 56.7344 12.9609C56.9375 13.2891 57.1797 13.5703 57.4609 13.8047C57.7578 14.0234 58.0781 14.1875 58.4219 14.2969C58.7656 14.3906 59.1172 14.4375 59.4766 14.4375C60.1797 14.4375 60.7578 14.2813 61.2109 13.9688C61.6797 13.6406 62.0469 13.2344 62.3125 12.75L64.8672 14.0156ZM62.0781 9.5625C62.0625 9.35938 61.9922 9.13281 61.8672 8.88281C61.7578 8.63281 61.5859 8.39844 61.3516 8.17969C61.1328 7.96094 60.8516 7.78125 60.5078 7.64063C60.1797 7.5 59.7813 7.42969 59.3125 7.42969C58.6563 7.42969 58.0781 7.61719 57.5781 7.99219C57.0781 8.36719 56.7266 8.89062 56.5234 9.5625H62.0781Z" fill="white"/>
<path d="M45.8594 5.29687H48.7422V6.89062H48.9297C49.0703 6.60937 49.2578 6.35156 49.4922 6.11719C49.7266 5.88281 49.9844 5.67969 50.2656 5.50781C50.5625 5.33594 50.875 5.20312 51.2031 5.10937C51.5469 5.01562 51.8828 4.96875 52.2109 4.96875C52.6172 4.96875 52.9609 5.00781 53.2422 5.08594C53.5391 5.16406 53.7891 5.26562 53.9922 5.39062L53.1719 8.17969C52.9844 8.08594 52.7734 8.01562 52.5391 7.96875C52.3203 7.90625 52.0469 7.875 51.7188 7.875C51.2969 7.875 50.9141 7.96094 50.5703 8.13281C50.2266 8.28906 49.9297 8.51562 49.6797 8.8125C49.4453 9.10937 49.2578 9.46094 49.1172 9.86719C48.9922 10.2578 48.9297 10.6875 48.9297 11.1562V16.7812H45.8594V5.29687Z" fill="white"/>
<path d="M41.0547 15.2813H40.8672C40.5078 15.8594 40.0234 16.3203 39.4141 16.6641C38.8047 16.9922 38.1094 17.1562 37.3281 17.1562C35.875 17.1562 34.7891 16.7109 34.0703 15.8203C33.3672 14.9297 33.0156 13.7422 33.0156 12.2578V5.29688H36.0859V11.8828C36.0859 12.7109 36.2656 13.3281 36.625 13.7344C37 14.125 37.5391 14.3203 38.2422 14.3203C38.6641 14.3203 39.0312 14.2344 39.3437 14.0625C39.6719 13.875 39.9453 13.6328 40.1641 13.3359C40.3984 13.0234 40.5703 12.6641 40.6797 12.2578C40.8047 11.8359 40.8672 11.3906 40.8672 10.9219V5.29688H43.9375V16.7813H41.0547V15.2813Z" fill="white"/>
<path d="M25.6719 7.92188H23.6562V5.29688H25.6719V1.78125H28.7422V5.29688H31.5547V7.92188H28.7422V12.375C28.7422 12.6406 28.7656 12.8906 28.8125 13.125C28.875 13.3438 28.9844 13.5313 29.1406 13.6875C29.3594 13.9375 29.6719 14.0625 30.0781 14.0625C30.3437 14.0625 30.5547 14.0391 30.7109 13.9922C30.8672 13.9297 31.0156 13.8516 31.1562 13.7578L32.0234 16.4531C31.6641 16.625 31.2734 16.75 30.8516 16.8281C30.4453 16.9219 29.9922 16.9688 29.4922 16.9688C28.9141 16.9688 28.3906 16.8828 27.9219 16.7109C27.4687 16.5234 27.0859 16.2734 26.7734 15.9609C26.0391 15.2578 25.6719 14.2578 25.6719 12.9609V7.92188Z" fill="white"/>
<path d="M19.4766 15.2813H19.2891C18.9297 15.8594 18.4453 16.3203 17.8359 16.6641C17.2266 16.9922 16.5313 17.1562 15.75 17.1562C14.2969 17.1562 13.2109 16.7109 12.4922 15.8203C11.7891 14.9297 11.4375 13.7422 11.4375 12.2578V5.29688H14.5078V11.8828C14.5078 12.7109 14.6875 13.3281 15.0469 13.7344C15.4219 14.125 15.9609 14.3203 16.6641 14.3203C17.0859 14.3203 17.4531 14.2344 17.7656 14.0625C18.0938 13.875 18.3672 13.6328 18.5859 13.3359C18.8203 13.0234 18.9922 12.6641 19.1016 12.2578C19.2266 11.8359 19.2891 11.3906 19.2891 10.9219V5.29688H22.3594V16.7813H19.4766V15.2813Z" fill="white"/>
<path d="M0 0H10.6406V3H3.16406V7.07812H9.89063V10.0781H3.16406V16.7812H0V0Z" fill="white"/>
</svg>
