<svg width="64" height="64" viewBox="0 0 64 64" fill="none" xmlns="http://www.w3.org/2000/svg">
<path d="M58.8045 5.1956C66.2991 12.6902 65.5896 25.551 57.2967 33.8439L42.2186 48.9219L15.0781 21.7815L30.1562 6.70341C38.4491 -1.58952 51.3099 -2.29904 58.8045 5.1956Z" fill="#FFD11A"/>
<path d="M27.1405 64.0004L0 36.8599C8.32738 28.5325 21.1537 27.8575 28.6483 35.3521C36.143 42.8467 35.4679 55.673 27.1405 64.0004Z" fill="#404040"/>
<path d="M55.7889 62.4926L28.6484 35.3521C36.9758 27.0247 49.8021 26.3496 57.2968 33.8443C64.7914 41.3389 64.1163 54.1652 55.7889 62.4926Z" fill="#FFD11A"/>
<path d="M28.6483 35.352L1.50781 8.21146C9.8352 -0.115913 22.6615 -0.790979 30.1561 6.70366C37.6508 14.1983 36.9757 27.0246 28.6483 35.352Z" fill="#FFD11A"/>
</svg>
