<svg width="179" height="50" viewBox="0 0 179 50" fill="none" xmlns="http://www.w3.org/2000/svg">
    <path d="M164.629 16.3633H167.699V21.0742L167.512 23.1602H167.699C168.027 22.6133 168.496 22.168 169.105 21.8242C169.73 21.4648 170.426 21.2852 171.191 21.2852C172.676 21.2852 173.77 21.7227 174.473 22.5977C175.191 23.4727 175.551 24.668 175.551 26.1836V33.1445H172.48V26.5586C172.48 25.7617 172.293 25.1602 171.918 24.7539C171.543 24.332 171.02 24.1211 170.348 24.1211C169.926 24.1211 169.551 24.2148 169.223 24.4023C168.895 24.5742 168.613 24.8164 168.379 25.1289C168.16 25.4414 167.988 25.8086 167.863 26.2305C167.754 26.6367 167.699 27.0742 167.699 27.543V33.1445H164.629V16.3633Z" fill="white"/>
    <path d="M163.457 30.2148C162.957 31.1836 162.254 31.9805 161.348 32.6055C160.457 33.2148 159.34 33.5195 157.996 33.5195C157.105 33.5195 156.285 33.3711 155.535 33.0742C154.801 32.7617 154.16 32.332 153.613 31.7852C153.082 31.2383 152.66 30.5977 152.348 29.8633C152.051 29.1133 151.902 28.293 151.902 27.4023C151.902 26.5117 152.051 25.6914 152.348 24.9414C152.66 24.1914 153.082 23.5508 153.613 23.0195C154.16 22.4727 154.801 22.0508 155.535 21.7539C156.285 21.4414 157.105 21.2852 157.996 21.2852C159.324 21.2852 160.441 21.5898 161.348 22.1992C162.254 22.8086 162.918 23.5977 163.34 24.5664L160.527 25.7383C160.262 25.207 159.918 24.8086 159.496 24.543C159.09 24.2617 158.574 24.1211 157.949 24.1211C157.543 24.1211 157.16 24.1992 156.801 24.3555C156.441 24.5117 156.121 24.7305 155.84 25.0117C155.574 25.293 155.363 25.6367 155.207 26.043C155.051 26.4492 154.973 26.9023 154.973 27.4023C154.973 27.9023 155.051 28.3555 155.207 28.7617C155.363 29.168 155.574 29.5117 155.84 29.793C156.121 30.0742 156.441 30.293 156.801 30.4492C157.16 30.6055 157.543 30.6836 157.949 30.6836C158.59 30.6836 159.129 30.543 159.566 30.2617C160.02 29.9648 160.379 29.543 160.645 28.9961L163.457 30.2148Z" fill="white"/>
    <path d="M151 30.3789C150.469 31.3164 149.75 32.0742 148.844 32.6523C147.953 33.2305 146.859 33.5195 145.563 33.5195C144.688 33.5195 143.875 33.3711 143.125 33.0742C142.391 32.7617 141.75 32.332 141.203 31.7852C140.656 31.2383 140.227 30.5977 139.914 29.8633C139.617 29.1133 139.469 28.293 139.469 27.4023C139.469 26.5742 139.617 25.793 139.914 25.0586C140.211 24.3086 140.625 23.6602 141.156 23.1133C141.688 22.5508 142.313 22.1055 143.031 21.7773C143.766 21.4492 144.57 21.2852 145.445 21.2852C146.367 21.2852 147.188 21.4414 147.906 21.7539C148.625 22.0508 149.227 22.4727 149.711 23.0195C150.195 23.5508 150.563 24.1836 150.813 24.918C151.063 25.6523 151.188 26.4492 151.188 27.3086C151.188 27.418 151.188 27.5117 151.188 27.5898C151.172 27.6836 151.164 27.7695 151.164 27.8477C151.148 27.9258 151.141 28.0117 151.141 28.1055H142.492C142.555 28.5742 142.68 28.9805 142.867 29.3242C143.07 29.6523 143.313 29.9336 143.594 30.168C143.891 30.3867 144.211 30.5508 144.555 30.6602C144.898 30.7539 145.25 30.8008 145.609 30.8008C146.313 30.8008 146.891 30.6445 147.344 30.332C147.813 30.0039 148.18 29.5977 148.445 29.1133L151 30.3789ZM148.211 25.9258C148.195 25.7227 148.125 25.4961 148 25.2461C147.891 24.9961 147.719 24.7617 147.484 24.543C147.266 24.3242 146.984 24.1445 146.641 24.0039C146.313 23.8633 145.914 23.793 145.445 23.793C144.789 23.793 144.211 23.9805 143.711 24.3555C143.211 24.7305 142.859 25.2539 142.656 25.9258H148.211Z" fill="white"/>
    <path d="M132.977 33.1445V19.3633H128.289V16.3633H140.828V19.3633H136.141V33.1445H132.977Z" fill="white"/>
    <path d="M127.594 30.3789C127.063 31.3164 126.344 32.0742 125.438 32.6523C124.547 33.2305 123.453 33.5195 122.156 33.5195C121.281 33.5195 120.469 33.3711 119.719 33.0742C118.984 32.7617 118.344 32.332 117.797 31.7852C117.25 31.2383 116.82 30.5977 116.508 29.8633C116.211 29.1133 116.062 28.293 116.062 27.4023C116.062 26.5742 116.211 25.793 116.508 25.0586C116.805 24.3086 117.219 23.6602 117.75 23.1133C118.281 22.5508 118.906 22.1055 119.625 21.7773C120.359 21.4492 121.164 21.2852 122.039 21.2852C122.961 21.2852 123.781 21.4414 124.5 21.7539C125.219 22.0508 125.82 22.4727 126.305 23.0195C126.789 23.5508 127.156 24.1836 127.406 24.918C127.656 25.6523 127.781 26.4492 127.781 27.3086C127.781 27.418 127.781 27.5117 127.781 27.5898C127.766 27.6836 127.758 27.7695 127.758 27.8477C127.742 27.9258 127.734 28.0117 127.734 28.1055H119.086C119.148 28.5742 119.273 28.9805 119.461 29.3242C119.664 29.6523 119.906 29.9336 120.188 30.168C120.484 30.3867 120.805 30.5508 121.148 30.6602C121.492 30.7539 121.844 30.8008 122.203 30.8008C122.906 30.8008 123.484 30.6445 123.938 30.332C124.406 30.0039 124.773 29.5977 125.039 29.1133L127.594 30.3789ZM124.805 25.9258C124.789 25.7227 124.719 25.4961 124.594 25.2461C124.484 24.9961 124.313 24.7617 124.078 24.543C123.859 24.3242 123.578 24.1445 123.234 24.0039C122.906 23.8633 122.508 23.793 122.039 23.793C121.383 23.793 120.805 23.9805 120.305 24.3555C119.805 24.7305 119.453 25.2539 119.25 25.9258H124.805Z" fill="white"/>
    <path d="M108.59 21.6602H111.473V23.2539H111.66C111.801 22.9727 111.988 22.7148 112.223 22.4805C112.457 22.2461 112.715 22.043 112.996 21.8711C113.293 21.6992 113.605 21.5664 113.934 21.4727C114.277 21.3789 114.613 21.332 114.941 21.332C115.348 21.332 115.691 21.3711 115.973 21.4492C116.27 21.5273 116.52 21.6289 116.723 21.7539L115.902 24.543C115.715 24.4492 115.504 24.3789 115.27 24.332C115.051 24.2695 114.777 24.2383 114.449 24.2383C114.027 24.2383 113.645 24.3242 113.301 24.4961C112.957 24.6523 112.66 24.8789 112.41 25.1758C112.176 25.4727 111.988 25.8242 111.848 26.2305C111.723 26.6211 111.66 27.0508 111.66 27.5195V33.1445H108.59V21.6602Z" fill="white"/>
    <path d="M103.777 31.6445H103.59C103.23 32.2227 102.746 32.6836 102.137 33.0273C101.527 33.3555 100.832 33.5195 100.051 33.5195C98.5977 33.5195 97.5117 33.0742 96.793 32.1836C96.0898 31.293 95.7383 30.1055 95.7383 28.6211V21.6602H98.8086V28.2461C98.8086 29.0742 98.9883 29.6914 99.3477 30.0977C99.7227 30.4883 100.262 30.6836 100.965 30.6836C101.387 30.6836 101.754 30.5977 102.066 30.4258C102.395 30.2383 102.668 29.9961 102.887 29.6992C103.121 29.3867 103.293 29.0273 103.402 28.6211C103.527 28.1992 103.59 27.7539 103.59 27.2852V21.6602H106.66V33.1445H103.777V31.6445Z" fill="white"/>
    <path d="M88.3945 24.2852H86.3789V21.6602H88.3945V18.1445H91.4648V21.6602H94.2773V24.2852H91.4648V28.7383C91.4648 29.0039 91.4883 29.2539 91.5352 29.4883C91.5977 29.707 91.707 29.8945 91.8633 30.0508C92.082 30.3008 92.3945 30.4258 92.8008 30.4258C93.0664 30.4258 93.2773 30.4023 93.4336 30.3555C93.5898 30.293 93.7383 30.2148 93.8789 30.1211L94.7461 32.8164C94.3867 32.9883 93.9961 33.1133 93.5742 33.1914C93.168 33.2852 92.7148 33.332 92.2148 33.332C91.6367 33.332 91.1133 33.2461 90.6445 33.0742C90.1914 32.8867 89.8086 32.6367 89.4961 32.3242C88.7617 31.6211 88.3945 30.6211 88.3945 29.3242V24.2852Z" fill="white"/>
    <path d="M82.207 31.6445H82.0195C81.6602 32.2227 81.1758 32.6836 80.5664 33.0273C79.957 33.3555 79.2617 33.5195 78.4805 33.5195C77.0273 33.5195 75.9414 33.0742 75.2227 32.1836C74.5195 31.293 74.168 30.1055 74.168 28.6211V21.6602H77.2383V28.2461C77.2383 29.0742 77.418 29.6914 77.7773 30.0977C78.1523 30.4883 78.6914 30.6836 79.3945 30.6836C79.8164 30.6836 80.1836 30.5977 80.4961 30.4258C80.8242 30.2383 81.0977 29.9961 81.3164 29.6992C81.5508 29.3867 81.7227 29.0273 81.832 28.6211C81.957 28.1992 82.0195 27.7539 82.0195 27.2852V21.6602H85.0898V33.1445H82.207V31.6445Z" fill="white"/>
    <path d="M62.7266 16.3633H73.3672V19.3633H65.8906V23.4414H72.6172V26.4414H65.8906V33.1445H62.7266V16.3633Z" fill="white"/>
    <path d="M33.3359 49.9987V41.6654C37.947 41.6654 41.6693 37.9431 41.6693 33.332H50.0026C50.0026 42.5543 42.5304 49.9987 33.3359 49.9987Z" fill="#FFD11A"/>
    <path d="M33.3346 49.9987V41.6654C28.7235 41.6654 25.0013 37.9431 25.0013 33.332H16.668C16.668 42.5543 24.1402 49.9987 33.3346 49.9987Z" fill="#FFD11A"/>
    <path d="M0 33.3359H8.33333C8.33333 37.947 12.0556 41.6693 16.6667 41.6693V50.0026C7.47222 50.0026 0 42.5582 0 33.3359Z" fill="#FFD11A"/>
    <path d="M0 33.3346H8.33333C8.33333 28.7235 12.0556 25.0013 16.6667 25.0013V16.668C7.47222 16.668 0 24.1402 0 33.3346Z" fill="#FFD11A"/>
    <path d="M16.6667 0V8.33333C12.0556 8.33333 8.33333 12.0556 8.33333 16.6667H0C0 7.47222 7.47222 0 16.6667 0Z" fill="#FFD11A"/>
    <path d="M16.668 0V8.33333C21.2791 8.33333 25.0013 12.0556 25.0013 16.6667H33.3346C33.3346 7.47222 25.8624 0 16.668 0Z" fill="#FFD11A"/>
    <path d="M49.9987 16.6667H41.6654C41.6654 12.0556 37.9431 8.33333 33.332 8.33333V0C42.5265 0 49.9987 7.47222 49.9987 16.6667Z" fill="#FFD11A"/>
    <path d="M49.9987 16.668H41.6654C41.6654 21.2791 37.9431 25.0013 33.332 25.0013V33.3346C42.5265 33.3346 49.9987 25.8902 49.9987 16.668Z" fill="#FFD11A"/>
</svg>
