<svg width="146" height="46" viewBox="0 0 146 46" fill="none" xmlns="http://www.w3.org/2000/svg">
<path d="M16.0001 44.831C12.9319 44.831 10.2046 44.3054 7.81825 43.2543C5.44609 42.2031 3.57109 40.7401 2.19325 38.8651C0.815409 36.9901 0.0838749 34.8239 -0.00135228 32.3665H8.01001C8.08103 33.5455 8.47166 34.5753 9.18189 35.456C9.89211 36.3224 10.8367 36.9972 12.0157 37.4801C13.1947 37.9631 14.5157 38.2045 15.9788 38.2045C17.5413 38.2045 18.9262 37.9347 20.1336 37.3949C21.341 36.8409 22.2856 36.0739 22.9674 35.0938C23.6492 34.1136 23.983 32.9844 23.9688 31.706C23.983 30.3849 23.6421 29.2202 22.9461 28.2116C22.2501 27.2031 21.2415 26.4148 19.9205 25.8466C18.6137 25.2784 17.037 24.9943 15.1904 24.9943H11.3339V18.9006H15.1904C16.7103 18.9006 18.0384 18.6378 19.1748 18.1122C20.3254 17.5866 21.2273 16.848 21.8808 15.8963C22.5342 14.9304 22.8538 13.8153 22.8396 12.5511C22.8538 11.3153 22.5768 10.2429 22.0086 9.33381C21.4546 8.41051 20.6663 7.69318 19.6435 7.18182C18.635 6.67045 17.4489 6.41477 16.0853 6.41477C14.7501 6.41477 13.5143 6.65625 12.3779 7.1392C11.2415 7.62216 10.3254 8.31108 9.62933 9.20597C8.93331 10.0866 8.56399 11.1378 8.52138 12.3594H0.914841C0.971659 9.91619 1.67478 7.77131 3.02422 5.92472C4.38785 4.06392 6.20603 2.61506 8.47876 1.57812C10.7515 0.526988 13.3012 0.00141883 16.1279 0.00141883C19.0398 0.00141883 21.5683 0.548294 23.7131 1.64204C25.8722 2.72159 27.5413 4.17756 28.7202 6.00994C29.8992 7.84233 30.4887 9.86648 30.4887 12.0824C30.5029 14.5398 29.7785 16.5994 28.3154 18.2614C26.8665 19.9233 24.9631 21.0099 22.6052 21.5213V21.8622C25.6734 22.2884 28.0242 23.4247 29.6577 25.2713C31.3055 27.1037 32.1222 29.3835 32.108 32.1108C32.108 34.554 31.412 36.7415 30.02 38.6733C28.6421 40.5909 26.7387 42.0966 24.3097 43.1903C21.895 44.2841 19.1251 44.831 16.0001 44.831ZM53.7508 45.0653C50.2423 45.0653 47.231 44.1776 44.7168 42.402C42.2168 40.6122 40.292 38.0341 38.9426 34.6676C37.6074 31.2869 36.9398 27.2173 36.9398 22.4588C36.954 17.7003 37.6287 13.652 38.9639 10.3139C40.3133 6.96165 42.2381 4.40483 44.7381 2.64347C47.2523 0.882101 50.2565 0.00141883 53.7508 0.00141883C57.2452 0.00141883 60.2494 0.882101 62.7636 2.64347C65.2778 4.40483 67.2026 6.96165 68.5378 10.3139C69.8872 13.6662 70.5619 17.7145 70.5619 22.4588C70.5619 27.2315 69.8872 31.3082 68.5378 34.6889C67.2026 38.0554 65.2778 40.6264 62.7636 42.402C60.2636 44.1776 57.2594 45.0653 53.7508 45.0653ZM53.7508 38.3963C56.4781 38.3963 58.6301 37.054 60.2068 34.3693C61.7977 31.6705 62.5932 27.7003 62.5932 22.4588C62.5932 18.9929 62.231 16.081 61.5065 13.723C60.7821 11.3651 59.7594 9.58949 58.4383 8.39631C57.1173 7.18892 55.5548 6.58523 53.7508 6.58523C51.0378 6.58523 48.8929 7.93466 47.3162 10.6335C45.7395 13.3182 44.944 17.2599 44.9298 22.4588C44.9156 25.9389 45.2636 28.8651 45.9739 31.2372C46.6983 33.6094 47.721 35.3991 49.042 36.6065C50.3631 37.7997 51.9327 38.3963 53.7508 38.3963ZM91.9704 45.0653C88.4619 45.0653 85.4505 44.1776 82.9363 42.402C80.4363 40.6122 78.5116 38.0341 77.1622 34.6676C75.8269 31.2869 75.1593 27.2173 75.1593 22.4588C75.1735 17.7003 75.8482 13.652 77.1835 10.3139C78.5329 6.96165 80.4576 4.40483 82.9576 2.64347C85.4718 0.882101 88.4761 0.00141883 91.9704 0.00141883C95.4647 0.00141883 98.469 0.882101 100.983 2.64347C103.497 4.40483 105.422 6.96165 106.757 10.3139C108.107 13.6662 108.781 17.7145 108.781 22.4588C108.781 27.2315 108.107 31.3082 106.757 34.6889C105.422 38.0554 103.497 40.6264 100.983 42.402C98.4832 44.1776 95.4789 45.0653 91.9704 45.0653ZM91.9704 38.3963C94.6977 38.3963 96.8497 37.054 98.4264 34.3693C100.017 31.6705 100.813 27.7003 100.813 22.4588C100.813 18.9929 100.451 16.081 99.7261 13.723C99.0016 11.3651 97.9789 9.58949 96.6579 8.39631C95.3369 7.18892 93.7744 6.58523 91.9704 6.58523C89.2573 6.58523 87.1124 7.93466 85.5357 10.6335C83.959 13.3182 83.1636 17.2599 83.1494 22.4588C83.1352 25.9389 83.4832 28.8651 84.1934 31.2372C84.9178 33.6094 85.9406 35.3991 87.2616 36.6065C88.5826 37.7997 90.1522 38.3963 91.9704 38.3963Z" fill="white"/>
<path d="M127.015 41.6562V12.1676H133.706V41.6562H127.015ZM115.616 30.2571V23.5668H145.105V30.2571H115.616Z" fill="#FFD11A"/>
</svg>
