<svg width="24" height="24" viewBox="0 0 24 24" fill="none" xmlns="http://www.w3.org/2000/svg">
<path d="M13.5374 12.2261C13.5374 15.9969 10.5069 19.0536 6.76883 19.0536C3.03073 19.0536 0 15.9962 0 12.2261C0 8.45611 3.0305 5.39844 6.76883 5.39844C10.5072 5.39844 13.5374 8.45542 13.5374 12.2261Z" fill="white"/>
<path d="M20.9642 12.2246C20.9642 15.7739 19.4489 18.6524 17.5797 18.6524C15.7106 18.6524 14.1953 15.7739 14.1953 12.2246C14.1953 8.67531 15.7103 5.79688 17.5795 5.79688C19.4487 5.79688 20.9639 8.67439 20.9639 12.2246" fill="white"/>
<path d="M23.9976 12.227C23.9976 15.4063 23.4647 17.9853 22.8073 17.9853C22.1498 17.9853 21.6172 15.407 21.6172 12.227C21.6172 9.04699 22.15 6.46875 22.8073 6.46875C23.4645 6.46875 23.9976 9.04676 23.9976 12.227Z" fill="white"/>
</svg>
