<svg width="64" height="64" viewBox="0 0 64 64" fill="none" xmlns="http://www.w3.org/2000/svg">
<path d="M0 22C0 30.8744 5.2545 38.5216 12.8221 42H0C0 54.1503 9.84974 64 22 64C30.8744 64 38.5216 58.7455 42 51.1779V64C54.1503 64 64 54.1503 64 42C64 33.1256 58.7455 25.4784 51.1779 22H64C64 9.84974 54.1503 0 42 0C33.1256 0 25.4784 5.2545 22 12.8221V0C9.84974 0 0 9.84974 0 22Z" fill="#404040"/>
<path d="M42 32C42 37.5228 37.5228 42 32 42C26.4772 42 22 37.5228 22 32C22 26.4772 26.4772 22 32 22C37.5228 22 42 26.4772 42 32Z" fill="#FFD11A"/>
</svg>
