<svg width="50" height="50" viewBox="0 0 50 50" fill="none" xmlns="http://www.w3.org/2000/svg">
<path d="M33.3281 49.9987V41.6654C37.9392 41.6654 41.6615 37.9431 41.6615 33.332H49.9948C49.9948 42.5543 42.5226 49.9987 33.3281 49.9987Z" fill="#FFD11A"/>
<path d="M33.3307 49.9987V41.6654C28.7196 41.6654 24.9974 37.9431 24.9974 33.332H16.6641C16.6641 42.5543 24.1363 49.9987 33.3307 49.9987Z" fill="#FFD11A"/>
<path d="M0 33.3359H8.33333C8.33333 37.947 12.0556 41.6693 16.6667 41.6693V50.0026C7.47222 50.0026 0 42.5582 0 33.3359Z" fill="#FFD11A"/>
<path d="M0 33.3346H8.33333C8.33333 28.7235 12.0556 25.0013 16.6667 25.0013V16.668C7.47222 16.668 0 24.1402 0 33.3346Z" fill="#FFD11A"/>
<path d="M16.6667 0V8.33333C12.0556 8.33333 8.33333 12.0556 8.33333 16.6667H0C0 7.47222 7.47222 0 16.6667 0Z" fill="#FFD11A"/>
<path d="M16.6641 0V8.33333C21.2752 8.33333 24.9974 12.0556 24.9974 16.6667H33.3307C33.3307 7.47222 25.8585 0 16.6641 0Z" fill="#FFD11A"/>
<path d="M50.0026 16.6667H41.6693C41.6693 12.0556 37.947 8.33333 33.3359 8.33333V0C42.5304 0 50.0026 7.47222 50.0026 16.6667Z" fill="#FFD11A"/>
<path d="M50.0026 16.668H41.6693C41.6693 21.2791 37.947 25.0013 33.3359 25.0013V33.3346C42.5304 33.3346 50.0026 25.8902 50.0026 16.668Z" fill="#FFD11A"/>
</svg>
