<!--<svg width="30" height="22" viewBox="0 0 30 22" fill="none" xmlns="http://www.w3.org/2000/svg">-->
<!--    <path d="M28.5208 9.00564C28.8829 9.46119 29.0833 10.053 29.0833 10.6667C29.0833 11.2803 28.8829 11.8722 28.5208 12.3277C26.228 15.1292 21.009 20.5833 14.9167 20.5833C8.82432 20.5833 3.60542 15.1292 1.31259 12.3277C0.950456 11.8722 0.75 11.2803 0.75 10.6667C0.75 10.053 0.950456 9.46119 1.31259 9.00564C3.60542 6.20417 8.82432 0.75 14.9167 0.75C21.009 0.75 26.228 6.20417 28.5208 9.00564Z" stroke="#98989A" stroke-width="1.5" stroke-linecap="round" stroke-linejoin="round"/>-->
<!--    <path d="M14.9174 15.0738C17.3294 15.0738 19.2847 13.1006 19.2847 10.6665C19.2847 8.23237 17.3294 6.25912 14.9174 6.25912C12.5054 6.25912 10.5501 8.23237 10.5501 10.6665C10.5501 13.1006 12.5054 15.0738 14.9174 15.0738Z" stroke="#98989A" stroke-width="1.5" stroke-linecap="round" stroke-linejoin="round"/>-->
<!--</svg>-->



<svg width="26" height="26" viewBox="0 0 26 26" fill="none" xmlns="http://www.w3.org/2000/svg">
    <path d="M23.4045 11.7311C23.6813 12.0795 23.8346 12.5321 23.8346 13.0013C23.8346 13.4706 23.6813 13.9232 23.4045 14.2715C21.6511 16.4138 17.6602 20.5846 13.0013 20.5846C8.34245 20.5846 4.35152 16.4138 2.59819 14.2715C2.32126 13.9232 2.16797 13.4706 2.16797 13.0013C2.16797 12.5321 2.32126 12.0795 2.59819 11.7311C4.35152 9.58881 8.34245 5.41797 13.0013 5.41797C17.6602 5.41797 21.6511 9.58881 23.4045 11.7311Z" stroke="#98989A" stroke-width="1.5" stroke-linecap="round" stroke-linejoin="round"/>
    <path d="M13.0019 16.3715C14.8463 16.3715 16.3415 14.8625 16.3415 13.0012C16.3415 11.1398 14.8463 9.63083 13.0019 9.63083C11.1574 9.63083 9.66217 11.1398 9.66217 13.0012C9.66217 14.8625 11.1574 16.3715 13.0019 16.3715Z" stroke="#98989A" stroke-width="1.5" stroke-linecap="round" stroke-linejoin="round"/>
</svg>
