<svg width="120" height="120" viewBox="0 0 120 120" fill="none" xmlns="http://www.w3.org/2000/svg">
    <path d="M80 120V99.9998C91.0666 99.9998 99.9998 91.0666 99.9998 80H120C120 102.133 102.066 120 80 120Z" fill="#FFD11A"/>
    <path d="M79.9997 120V99.9998C68.9331 99.9998 59.9998 91.0666 59.9998 80H40C40 102.133 57.9332 120 79.9997 120Z" fill="#FFD11A"/>
    <path d="M0 80H19.9998C19.9998 91.0666 28.9331 99.9998 39.9997 99.9998V120C17.9332 120 0 102.133 0 80Z" fill="#FFD11A"/>
    <path d="M0 79.9997H19.9998C19.9998 68.9331 28.9331 59.9998 39.9997 59.9998V40C17.9332 40 0 57.9332 0 79.9997Z" fill="#FFD11A"/>
    <path d="M39.9997 0V19.9998C28.9331 19.9998 19.9998 28.9331 19.9998 39.9997H0C0 17.9332 17.9332 0 39.9997 0Z" fill="#FFD11A"/>
    <path d="M40 0V19.9998C51.0666 19.9998 59.9998 28.9331 59.9998 39.9997H79.9997C79.9997 17.9332 62.0665 0 40 0Z" fill="#FFD11A"/>
    <path d="M120 39.9997H99.9998C99.9998 28.9331 91.0666 19.9998 80 19.9998V0C102.066 0 120 17.9332 120 39.9997Z" fill="#FFD11A"/>
    <path d="M120 40H99.9998C99.9998 51.0666 91.0666 59.9998 80 59.9998V79.9997C102.066 79.9997 120 62.1332 120 40Z" fill="#FFD11A"/>
</svg>
