<svg width="24" height="24" viewBox="0 0 24 24" fill="none" xmlns="http://www.w3.org/2000/svg">
<path d="M20.8661 1.60156H3.13701C2.72978 1.60156 2.33924 1.76333 2.05128 2.05128C1.76333 2.33924 1.60156 2.72978 1.60156 3.13701V20.8661C1.60156 21.2733 1.76333 21.6639 2.05128 21.9518C2.33924 22.2398 2.72978 22.4016 3.13701 22.4016H20.8661C21.2733 22.4016 21.6639 22.2398 21.9518 21.9518C22.2398 21.6639 22.4016 21.2733 22.4016 20.8661V3.13701C22.4016 2.72978 22.2398 2.33924 21.9518 2.05128C21.6639 1.76333 21.2733 1.60156 20.8661 1.60156ZM7.80112 19.3206H4.6739V9.38712H7.80112V19.3206ZM6.23534 8.01056C5.88061 8.00856 5.53442 7.90153 5.24047 7.70297C4.94651 7.50441 4.71796 7.22322 4.58366 6.89489C4.44936 6.56656 4.41532 6.20581 4.48586 5.85816C4.55639 5.5105 4.72832 5.19154 4.97996 4.94151C5.2316 4.69148 5.55167 4.52159 5.89977 4.45329C6.24786 4.385 6.60839 4.42134 6.93585 4.55775C7.26331 4.69416 7.54303 4.92451 7.7397 5.21973C7.93637 5.51496 8.04118 5.86183 8.0409 6.21656C8.04424 6.45406 7.99974 6.6898 7.91004 6.90973C7.82034 7.12966 7.68728 7.32928 7.51879 7.49669C7.3503 7.6641 7.14983 7.79587 6.92933 7.88416C6.70883 7.97245 6.47281 8.01543 6.23534 8.01056ZM19.3278 19.3292H16.202V13.9025C16.202 12.302 15.5217 11.808 14.6435 11.808C13.7161 11.808 12.8061 12.5071 12.8061 13.9429V19.3292H9.67889V9.39434H12.6862V10.7709H12.7267C13.0286 10.1599 14.0859 9.11556 15.6993 9.11556C17.4442 9.11556 19.3292 10.1512 19.3292 13.1846L19.3278 19.3292Z" fill="white"/>
</svg>
